<?xml version="1.0" standalone="no"?>
<!DOCTYPE svg PUBLIC "-//W3C//DTD SVG 20010904//EN"
 "http://www.w3.org/TR/2001/REC-SVG-20010904/DTD/svg10.dtd">
<svg version="1.0" xmlns="http://www.w3.org/2000/svg"
 width="512.000000pt" height="512.000000pt" viewBox="0 0 512.000000 512.000000"
 preserveAspectRatio="xMidYMid meet">

<g transform="translate(0.000000,512.000000) scale(0.100000,-0.100000)"
fill="#000000" stroke="none">
<path d="M2490 4960 c0 -5 -13 -10 -30 -10 -16 0 -30 -4 -30 -10 0 -5 -5 -10
-11 -10 -6 0 -17 -7 -25 -15 -9 -8 -24 -15 -34 -15 -12 0 -24 -15 -36 -42 -24
-57 -30 -334 -14 -633 12 -233 8 -268 -30 -280 -9 -3 -22 -17 -28 -30 -6 -14
-17 -25 -24 -25 -8 0 -24 -20 -38 -45 -14 -25 -28 -45 -32 -45 -4 0 -17 -18
-29 -40 -18 -32 -28 -40 -51 -40 -15 0 -28 -4 -28 -10 0 -5 -11 -10 -24 -10
-14 0 -31 -7 -40 -15 -8 -8 -18 -15 -23 -15 -4 0 -17 -12 -27 -26 -11 -14 -30
-37 -43 -52 -13 -15 -23 -32 -23 -39 0 -14 -32 -75 -43 -84 -4 -3 -11 -39 -14
-80 -6 -70 -9 -76 -47 -116 -76 -78 -100 -113 -110 -161 -4 -17 -11 -32 -16
-32 -4 0 -11 -24 -14 -52 -21 -174 -42 -278 -58 -289 -13 -9 -48 -215 -48
-286 0 -89 19 -152 47 -159 16 -4 28 -22 43 -62 12 -31 25 -59 28 -62 4 -3 14
-21 24 -40 16 -35 34 -60 76 -107 12 -14 22 -30 22 -34 0 -5 6 -9 14 -9 7 0
22 -11 32 -25 10 -14 24 -25 31 -25 7 0 23 -11 35 -23 13 -13 36 -27 51 -31
15 -3 27 -11 27 -16 0 -6 6 -10 13 -10 8 0 22 -16 33 -35 10 -19 24 -35 31
-35 8 0 21 -16 30 -35 13 -27 23 -35 44 -35 15 0 30 6 32 13 4 10 6 10 6 0 1
-18 98 -18 104 0 4 9 6 9 6 0 1 -16 591 -19 591 -3 0 6 18 10 40 10 22 0 40
-4 40 -10 0 -6 27 -10 60 -10 53 0 60 2 60 19 0 21 74 101 93 101 7 0 19 9 27
20 8 11 24 20 36 20 13 0 29 7 38 15 8 8 22 15 30 15 9 0 16 4 16 9 0 5 14 12
30 16 17 4 30 11 30 16 0 5 6 9 14 9 8 0 16 7 20 15 3 8 12 15 20 15 8 0 17 8
20 18 3 9 17 30 31 46 14 17 35 62 47 100 12 39 25 73 30 74 4 2 8 13 8 25 1
40 38 108 57 105 24 -4 45 60 46 137 0 58 -38 235 -53 245 -7 5 -20 89 -40
270 -6 52 -15 97 -19 100 -5 3 -15 25 -22 50 -13 46 -32 81 -61 113 -40 47
-106 107 -116 107 -4 0 -13 44 -20 97 -7 54 -17 102 -22 107 -6 6 -10 18 -10
28 0 10 -4 18 -9 18 -6 0 -22 23 -37 50 -15 28 -33 50 -41 50 -7 0 -13 4 -13
10 0 5 -11 12 -25 16 -14 3 -25 10 -25 15 0 5 -9 9 -20 9 -11 0 -20 5 -20 10
0 6 -7 10 -15 10 -8 0 -21 12 -29 28 -8 15 -26 41 -40 57 -14 17 -29 38 -32
48 -3 9 -9 17 -14 17 -5 0 -24 15 -43 33 -18 19 -46 37 -61 41 -36 9 -56 29
-56 55 0 11 -10 57 -21 101 -21 78 -21 81 -4 133 14 39 19 86 19 186 1 97 5
136 14 139 15 5 17 122 2 122 -5 0 -10 7 -10 14 0 17 -42 66 -57 66 -5 0 -19
18 -32 40 -12 22 -28 40 -34 40 -7 0 -19 9 -27 20 -9 13 -26 20 -47 20 -18 0
-33 5 -33 10 0 6 -16 10 -35 10 -19 0 -35 -4 -35 -10z m-139 -350 c5 0 9 -7 9
-15 0 -8 -7 -15 -15 -15 -11 0 -15 -12 -15 -50 0 -38 4 -50 15 -50 8 0 15 -9
15 -19 0 -10 -7 -21 -15 -25 -19 -7 -20 -69 -2 -88 9 -9 17 -53 21 -121 4 -59
11 -121 16 -138 7 -22 6 -29 -3 -26 -7 2 -13 25 -15 50 -2 26 -7 47 -11 47
-19 0 -37 346 -25 466 8 80 9 84 12 37 2 -29 7 -53 13 -53z m59 80 c0 -5 25
-10 56 -10 l55 0 -3 -47 -3 -48 -68 0 c-78 0 -87 7 -87 73 0 38 2 42 25 42 14
0 25 -4 25 -10z m50 -290 c0 -37 -14 -69 -26 -58 -3 4 -3 33 1 64 7 62 25 58
25 -6z m10 -194 c0 -20 -16 -36 -36 -36 -17 0 -24 6 -24 20 0 16 7 20 30 20
17 0 30 -2 30 -4z m20 -86 c0 -30 -31 -60 -62 -60 -26 0 -28 3 -28 40 l0 40
45 0 c38 0 45 -3 45 -20z m-124 -104 c3 -13 4 -82 2 -153 -2 -109 -6 -132 -21
-148 -18 -18 -18 -17 -11 31 3 27 11 51 15 52 13 5 11 212 -1 212 -5 0 -10 7
-10 15 0 24 19 17 26 -9z m414 -96 c8 -11 20 -20 26 -20 10 0 54 -62 54 -76 0
-11 -39 -2 -44 11 -3 8 -12 15 -19 15 -8 0 -19 11 -25 25 -6 14 -18 25 -27 25
-8 0 -15 9 -15 20 0 13 7 20 18 20 10 0 24 -9 32 -20z m-470 -34 c0 -8 -6 -21
-14 -28 -7 -8 -16 -34 -20 -59 -10 -68 -75 -133 -77 -76 l0 22 -11 -22 c-11
-23 -38 -32 -38 -13 0 6 4 10 8 10 5 0 18 18 31 40 12 22 26 40 31 40 5 0 11
8 15 19 5 18 60 81 70 81 3 0 5 -6 5 -14z m254 -20 c-3 -14 -10 -26 -14 -26
-5 0 -14 -16 -20 -35 -20 -60 -60 -87 -60 -40 0 14 5 25 11 25 5 0 17 17 26
37 14 35 52 78 60 69 2 -2 1 -15 -3 -30z m-494 -228 c0 -3 -13 -9 -30 -13 -16
-4 -30 -10 -30 -14 0 -5 -16 -25 -35 -46 -20 -20 -42 -50 -51 -66 -8 -16 -18
-29 -23 -29 -12 0 -41 -131 -41 -186 0 -27 -5 -56 -10 -64 -23 -36 -1 186 26
257 9 24 20 43 25 43 4 0 18 18 30 40 13 22 27 40 32 40 4 0 15 6 22 13 33 29
45 37 55 37 5 0 10 6 10 13 0 12 20 -11 20 -25z m750 22 c0 -5 7 -10 15 -10 8
0 15 -4 15 -10 0 -5 7 -10 16 -10 20 0 73 -53 104 -105 44 -74 65 -74 75 0 3
30 11 55 16 55 13 0 45 -77 54 -130 4 -25 11 -47 15 -50 4 -3 10 -38 14 -77 8
-84 0 -91 -46 -43 -15 17 -35 30 -43 30 -8 0 -15 5 -15 10 0 6 -7 10 -15 10
-8 0 -15 5 -15 10 0 6 -7 10 -15 10 -8 0 -15 4 -15 9 0 5 -13 12 -30 16 -16 4
-30 10 -30 14 0 5 -15 25 -34 45 -19 20 -45 54 -57 76 -29 51 -54 54 -46 5 3
-19 2 -35 -2 -35 -11 0 -31 46 -31 70 0 11 -4 20 -10 20 -5 0 -10 18 -10 40 0
29 4 40 15 40 8 0 15 5 15 10 0 6 14 10 30 10 17 0 30 -4 30 -10z m-620 -50
c0 -5 10 -10 21 -10 19 0 21 -4 16 -35 -6 -37 -57 -99 -65 -77 -5 16 -49 16
-56 0 -4 -7 -4 4 -2 24 l5 37 -32 -33 c-66 -69 -85 -103 -101 -178 -7 -32 -36
-38 -36 -8 0 11 4 20 8 20 4 0 16 23 26 51 10 28 28 61 40 74 12 13 31 40 41
59 11 20 25 36 32 36 7 0 23 11 35 24 23 25 68 35 68 16z m360 -20 c0 -5 13
-10 30 -10 19 0 33 -7 40 -20 17 -31 4 -40 -56 -40 -30 0 -54 -4 -54 -10 0 -5
-18 -10 -40 -10 -46 0 -53 16 -13 26 35 9 64 35 45 42 -25 8 -12 32 18 32 17
0 30 -4 30 -10z m-150 -40 c0 -11 -4 -20 -10 -20 -5 0 -10 9 -10 20 0 11 5 20
10 20 6 0 10 -9 10 -20z m-44 -35 c-8 -8 -19 -15 -25 -15 -11 0 -15 -12 -12
-42 1 -9 -11 -30 -28 -47 -36 -36 -61 -136 -61 -240 0 -58 -3 -69 -15 -65 -11
5 -15 24 -15 80 0 41 4 74 9 74 4 0 11 23 14 51 4 28 15 70 27 93 11 23 20 48
20 55 0 20 59 71 82 71 17 0 18 -2 4 -15z m144 -74 c0 -6 17 -11 37 -13 38 -3
48 -14 34 -37 -7 -11 -39 -14 -134 -15 -69 -1 -128 2 -132 6 -4 3 -2 16 5 27
9 18 20 21 75 21 37 0 65 4 65 10 0 6 11 10 25 10 14 0 25 -4 25 -9z m-368
-33 c11 -16 3 -140 -14 -204 -8 -29 -20 -49 -30 -52 -10 -2 -20 -13 -23 -23
-4 -10 -10 -19 -15 -19 -5 0 -15 -3 -24 -6 -26 -10 -19 16 11 42 15 13 23 27
19 31 -5 4 -11 2 -13 -4 -3 -7 -16 -13 -30 -13 -24 0 -25 2 -19 42 8 49 13 58
31 58 7 0 17 9 20 20 3 11 11 20 16 20 6 0 4 7 -5 15 -8 8 -21 15 -30 15 -16
0 -23 30 -17 74 4 28 4 28 59 23 30 -3 59 -12 64 -19z m268 -88 c0 -5 9 -10
19 -10 11 0 26 -7 35 -15 8 -8 17 -15 21 -15 4 0 13 -6 20 -12 31 -28 44 -38
51 -38 8 0 33 -32 34 -42 1 -17 -35 -38 -66 -38 -19 0 -34 -4 -34 -10 0 -5 -7
-10 -15 -10 -8 0 -15 5 -15 10 0 6 -13 10 -30 10 -16 0 -30 -4 -30 -10 0 -5
-9 -10 -20 -10 -11 0 -20 5 -20 10 0 6 -9 10 -19 10 -10 0 -33 13 -50 29 -34
32 -39 64 -20 120 11 30 12 31 75 31 36 0 64 -4 64 -10z m-400 -47 c0 -5 -7
-17 -15 -27 -35 -47 -9 -248 33 -259 13 -4 12 -5 -3 -6 -23 -1 -55 31 -55 54
0 8 -4 15 -10 15 -6 0 -10 40 -10 99 0 91 2 100 20 106 11 3 20 11 20 16 0 5
5 9 10 9 6 0 10 -3 10 -7z m-212 -78 c-7 -9 -20 -24 -29 -33 -29 -32 -48 -69
-55 -108 -4 -21 -11 -41 -15 -44 -4 -3 -13 -48 -19 -100 -12 -109 -27 -172
-43 -182 -16 -10 -16 -210 1 -215 6 -3 12 -10 12 -16 0 -14 42 -99 52 -107 13
-10 48 -102 47 -123 0 -16 -7 -9 -21 23 -11 25 -24 47 -27 50 -4 3 -13 19 -19
35 -7 17 -26 46 -42 65 -40 47 -58 146 -42 238 16 93 35 162 44 162 5 0 8 15
8 33 0 67 36 237 50 237 5 0 13 14 19 30 5 17 27 48 48 69 31 31 39 34 41 20
2 -10 -3 -26 -10 -34z m16 -31 c8 -20 -2 -54 -15 -54 -5 0 -9 -6 -9 -14 0 -8
-7 -22 -16 -30 -15 -16 -53 -175 -54 -226 0 -29 -16 -58 -25 -48 -10 10 -8
160 3 167 5 3 14 35 21 70 12 61 28 95 61 133 19 21 26 22 34 2z m1547 -71
c12 -32 26 -60 29 -63 4 -3 13 -48 19 -101 15 -121 0 -197 -39 -199 -3 0 -4
37 -3 82 1 47 -1 75 -5 64 -6 -13 -11 -1 -20 45 -6 34 -15 65 -20 68 -25 17
-22 161 3 161 7 0 23 -26 36 -57z m-1115 -130 c16 -66 33 -103 46 -103 5 0 16
-7 24 -15 9 -8 12 -15 7 -15 -31 1 -52 17 -74 58 -13 26 -27 49 -30 52 -4 3
-9 14 -12 25 -4 11 -4 0 -2 -25 7 -60 -6 -104 -31 -108 -32 -4 -44 12 -51 66
-6 53 2 71 40 85 9 3 17 12 17 19 0 9 3 8 10 -2 7 -11 10 -7 10 18 0 30 2 32
15 18 9 -9 23 -42 31 -73z m864 57 c0 -5 6 -10 13 -10 18 0 44 -48 52 -99 4
-25 14 -51 21 -59 12 -11 14 -9 15 15 l1 28 8 -30 c12 -45 12 -175 0 -175 -5
0 -10 5 -10 10 0 6 -5 10 -10 10 -10 0 -22 8 -55 38 -7 6 -18 12 -23 12 -5 0
-20 21 -33 47 -13 26 -29 53 -36 60 -12 14 -33 99 -33 138 0 23 4 25 45 25 25
0 45 -4 45 -10z m-1248 -46 c7 -8 21 -24 31 -35 9 -10 17 -25 17 -33 0 -8 5
-18 10 -21 25 -16 4 -105 -25 -105 -8 0 -16 -6 -17 -12 0 -7 -2 -17 -3 -23 -2
-5 -3 -16 -4 -22 -1 -18 -79 -17 -97 1 -17 17 -20 166 -4 166 6 0 10 6 10 14
0 23 41 86 56 86 7 0 19 -7 26 -16z m1139 -34 c5 0 9 -9 9 -19 0 -26 41 -131
51 -131 4 0 20 -22 36 -50 17 -30 35 -50 46 -50 9 0 17 -4 17 -10 0 -5 11 -12
25 -16 14 -3 25 -10 25 -15 0 -5 7 -9 15 -9 8 0 15 -7 15 -15 0 -20 -59 -8
-81 17 -9 10 -23 18 -31 18 -8 0 -24 12 -34 26 -10 15 -27 34 -36 43 -10 8
-18 23 -18 33 0 9 -4 20 -10 23 -5 3 -10 15 -10 25 0 10 -7 23 -15 28 -12 6
-17 29 -20 83 -2 41 -1 62 1 47 3 -16 10 -28 15 -28z m-887 -47 c4 -27 13 -57
21 -67 17 -23 20 -46 5 -46 -6 0 -18 17 -28 38 -9 20 -20 39 -24 40 -5 2 -8
21 -8 43 0 58 26 52 34 -8z m386 -122 c0 -22 -6 -46 -13 -53 -8 -7 -19 -23
-26 -36 -6 -12 -21 -22 -31 -22 -11 0 -20 -4 -20 -10 0 -5 -7 -10 -15 -10 -8
0 -15 4 -15 10 0 5 -11 12 -24 16 -19 4 -46 39 -46 59 0 2 23 6 50 10 28 4 50
11 50 16 0 5 7 9 15 9 15 0 32 11 58 37 17 17 17 17 17 -26z m518 2 c5 -10 13
-36 17 -58 7 -41 63 -105 91 -105 8 0 14 -4 14 -10 0 -5 9 -10 20 -10 11 0 20
-4 20 -10 0 -5 7 -10 16 -10 14 0 15 -7 11 -37 -4 -21 -11 -39 -17 -41 -5 -2
-10 -11 -10 -20 0 -27 -42 -152 -51 -152 -5 0 -20 -38 -34 -84 -14 -47 -29
-86 -33 -88 -4 -2 -16 -20 -26 -41 -11 -21 -28 -47 -37 -58 -9 -11 -15 -28
-12 -38 2 -10 -5 -33 -16 -52 -18 -30 -21 -31 -21 -11 0 18 -6 22 -30 22 -29
0 -44 24 -20 32 6 2 13 21 17 43 3 22 11 43 17 47 16 10 14 197 -2 207 -15 9
-20 130 -5 140 17 11 53 199 55 289 2 63 17 82 36 45z m-738 -40 c0 -13 5 -23
10 -23 6 0 10 -7 10 -15 0 -9 7 -27 16 -41 9 -13 13 -28 9 -32 -4 -4 -10 -2
-12 5 -2 6 -15 23 -29 38 -18 20 -24 37 -24 73 0 34 3 43 10 32 5 -8 10 -25
10 -37z m-150 -25 c-1 -18 -3 -20 -9 -8 -5 8 -12 26 -16 40 -7 22 -6 23 9 8 9
-9 16 -27 16 -40z m104 25 c3 -16 8 -50 12 -77 l7 -49 -27 5 c-25 5 -27 3 -22
-18 7 -28 -8 -33 -19 -6 -3 9 -9 47 -12 85 -5 58 -4 67 11 67 9 0 16 5 16 10
0 23 29 8 34 -17z m476 -3 c0 -21 -24 -60 -37 -60 -7 0 -16 -7 -19 -15 -7 -18
-30 -20 -38 -2 -5 10 -7 10 -12 0 -8 -19 -22 -16 -29 6 -11 35 14 70 54 74 70
7 81 7 81 -3z m-610 -39 c0 -23 42 -103 68 -129 16 -16 19 -39 24 -158 2 -76
2 -193 -1 -259 -6 -114 -7 -120 -28 -123 -18 -3 -27 6 -45 45 -13 26 -26 49
-30 51 -13 6 -36 96 -42 162 -3 36 -11 67 -16 68 -6 2 -10 12 -10 21 0 10 -11
40 -25 67 -14 27 -25 55 -25 62 0 6 -4 12 -10 12 -5 0 -14 9 -20 20 -11 21 5
60 25 60 5 1 19 12 30 26 11 14 30 36 43 50 12 14 22 29 22 35 0 5 9 9 20 9
13 0 20 -7 20 -19z m-390 -65 c8 -10 27 -31 41 -46 14 -15 36 -45 49 -66 13
-22 30 -43 37 -49 13 -11 33 -116 33 -176 0 -20 8 -44 18 -55 10 -10 24 -33
31 -51 7 -17 30 -51 52 -74 21 -23 41 -50 44 -60 4 -11 11 -19 16 -19 5 0 9
-7 9 -15 0 -8 -4 -15 -10 -15 -5 0 -12 -16 -16 -35 -7 -40 -14 -43 -34 -15 -8
11 -20 20 -26 20 -7 0 -21 8 -30 18 -17 16 -18 16 -11 0 8 -23 -15 -24 -37 -3
-8 8 -19 15 -25 15 -6 0 -11 4 -11 9 0 5 -11 12 -24 15 -14 3 -28 15 -31 26
-3 11 -12 20 -19 20 -7 0 -22 18 -35 40 -12 22 -26 40 -32 40 -5 0 -9 9 -9 19
0 11 -4 22 -9 25 -4 3 -11 18 -14 33 -3 16 -9 37 -12 48 -4 11 3 4 15 -15 12
-19 25 -37 29 -40 3 -3 19 -31 35 -62 16 -31 37 -59 47 -61 12 -3 16 0 12 9
-3 8 -10 14 -17 14 -6 0 -19 12 -28 28 -16 27 -40 102 -33 102 2 0 15 -11 28
-24 13 -13 33 -27 44 -30 17 -6 20 -3 15 19 -2 14 -8 28 -13 31 -5 3 -9 14 -9
25 0 10 -3 19 -8 19 -4 0 -20 34 -36 75 -16 41 -32 75 -37 75 -21 0 -55 170
-44 221 l7 31 16 -24 c9 -13 23 -31 32 -42z m1730 -10 c0 -35 -6 -49 -30 -72
-56 -55 -77 -72 -98 -79 -12 -3 -22 -11 -22 -17 0 -6 -2 -9 -5 -6 -3 3 1 24
10 47 14 41 84 121 105 121 6 0 16 11 22 25 6 14 13 25 15 25 1 0 3 -20 3 -44z
m-106 -11 c-4 -8 -9 -15 -13 -15 -4 0 -17 -18 -29 -39 -12 -22 -26 -41 -31
-43 -5 -2 -14 -39 -21 -83 -22 -143 -31 -185 -45 -199 -7 -7 -20 -28 -28 -47
-8 -19 -27 -47 -41 -64 -15 -16 -29 -42 -33 -57 -3 -15 -23 -46 -44 -68 -22
-22 -39 -45 -39 -50 0 -6 -9 -10 -20 -10 -26 0 -25 12 1 30 11 8 30 32 41 53
12 20 24 37 28 37 3 0 19 26 35 57 17 31 38 66 48 77 9 11 17 28 17 37 0 10 5
21 10 24 6 3 10 15 10 26 0 10 4 19 9 19 4 0 16 48 25 107 9 59 21 112 26 117
6 6 10 18 10 27 0 10 9 20 19 24 11 3 23 15 26 25 3 10 14 21 23 23 9 3 18 5
19 6 1 0 0 -6 -3 -14z m-825 -125 c-13 -22 -29 -40 -36 -40 -7 0 -13 -4 -13
-10 0 -17 -77 -12 -84 6 -11 28 -6 54 9 54 8 0 15 4 15 9 0 5 16 12 35 15 19
4 35 11 35 16 0 6 6 10 13 10 8 0 20 12 28 27 l14 27 3 -37 c2 -25 -4 -51 -19
-77z m174 53 c6 -34 -3 -93 -14 -93 -5 0 -9 -12 -9 -27 0 -21 -3 -24 -9 -14
-8 12 -11 8 -17 -15 -3 -16 -12 -33 -18 -39 -7 -5 -18 -19 -25 -30 -11 -17
-12 -15 -7 20 4 22 9 66 13 98 3 31 9 57 12 57 4 0 13 16 20 35 15 43 46 48
54 8z m-405 -56 c2 -21 7 -37 13 -37 5 0 9 -16 9 -35 0 -30 -3 -35 -25 -35
-22 0 -24 4 -28 58 -3 46 -4 43 -3 -16 1 -39 0 -72 -1 -72 -25 0 -33 18 -33
71 0 33 4 59 10 59 6 0 10 11 10 25 0 20 4 24 23 21 17 -2 23 -10 25 -39z m62
13 c0 -16 5 -30 10 -30 6 0 10 -9 10 -19 0 -11 5 -23 10 -26 16 -10 12 -25 -8
-25 -23 0 -39 27 -47 84 -6 39 -5 46 9 46 11 0 16 -9 16 -30z m-756 -42 c10
-41 7 -78 -8 -78 -17 0 -26 21 -26 59 0 44 23 57 34 19z m952 -165 c-12 -124
-27 -185 -48 -191 -10 -2 -18 -8 -18 -13 0 -5 -7 -9 -16 -9 -11 0 -14 5 -10
16 4 12 1 14 -14 9 -18 -6 -20 -2 -20 49 0 31 4 56 8 56 4 0 13 20 20 45 9 34
18 46 37 51 14 3 25 10 25 14 0 10 28 40 37 40 3 0 3 -30 -1 -67z m-147 -129
c-5 -76 -13 -155 -18 -174 l-9 -35 -1 37 c-1 46 18 288 25 307 12 34 13 -5 3
-135z m962 93 c-6 -6 -11 -19 -11 -29 0 -10 -6 -21 -13 -24 -7 -2 -24 -25 -37
-49 -14 -25 -30 -45 -37 -45 -7 0 -23 -11 -37 -25 -14 -14 -28 -25 -31 -25 -4
0 -13 -7 -21 -15 -9 -8 -23 -15 -32 -14 -11 0 -12 2 -4 6 6 2 12 12 12 20 0
17 39 86 52 91 4 2 8 11 9 20 0 14 2 13 9 -3 7 -18 10 -16 24 18 9 20 24 47
34 58 9 11 24 29 32 39 22 26 54 30 58 7 2 -11 -1 -24 -7 -30z m-1081 33 c0
-5 11 -10 24 -10 23 0 24 -3 31 -103 9 -125 6 -141 -23 -145 -16 -3 -22 2 -22
16 0 11 -6 35 -14 53 -14 33 -14 33 -9 -28 4 -40 2 -63 -4 -63 -17 0 -23 38
-23 136 0 109 8 154 26 154 8 0 14 -4 14 -10z m617 -97 c-3 -10 -5 -4 -5 12 0
17 2 24 5 18 2 -7 2 -21 0 -30z m-171 -218 c-8 -8 -19 -15 -25 -15 -6 0 -11 7
-11 15 0 9 10 15 26 15 23 0 24 -2 10 -15z"/>
<path d="M480 1166 c0 -107 3 -197 8 -199 4 -3 19 -3 34 0 22 4 28 12 33 47
11 70 14 76 44 76 39 0 51 33 51 143 -1 120 -6 127 -99 127 l-71 0 0 -194z
m148 67 l-3 -98 -34 -3 c-45 -5 -59 -21 -63 -72 -2 -24 -9 -45 -15 -48 -10 -3
-13 33 -13 157 l0 161 65 0 66 0 -3 -97z"/>
<path d="M530 1239 c0 -30 6 -56 14 -65 32 -31 46 -10 46 67 0 48 -1 49 -30
49 -29 0 -30 -1 -30 -51z"/>
<path d="M686 1344 c-10 -26 -7 -348 4 -364 10 -16 131 -22 147 -7 4 5 10 83
11 174 5 211 4 213 -89 213 -52 0 -68 -4 -73 -16z m142 -171 l-3 -158 -62 -3
-63 -3 0 161 0 160 65 0 66 0 -3 -157z"/>
<path d="M740 1182 c0 -118 4 -142 26 -142 20 0 25 33 22 145 -3 95 -4 100
-25 103 -23 3 -23 2 -23 -106z"/>
<path d="M891 1337 c-14 -27 -12 -349 2 -364 5 -4 36 -8 71 -8 85 0 96 12 96
104 l0 71 -29 0 c-16 0 -36 -7 -45 -15 -23 -23 -26 -19 -26 33 0 60 11 79 30
52 8 -12 26 -20 42 -20 28 0 28 0 28 71 0 90 -9 99 -93 99 -57 0 -65 -3 -76
-23z m144 -48 c9 -55 -10 -77 -27 -31 -10 27 -17 32 -38 30 -25 -3 -25 -5 -28
-103 -4 -126 1 -145 33 -145 19 0 25 5 25 23 0 12 5 29 10 37 9 13 11 13 20 0
11 -17 12 -36 4 -68 -6 -21 -11 -23 -68 -20 l-61 3 -3 135 c-4 184 -5 180 67
180 l59 0 7 -41z"/>
<path d="M1080 1166 c0 -107 3 -197 8 -199 16 -11 62 6 68 25 6 18 6 18 25 -3
16 -19 31 -22 111 -26 51 -2 108 -1 126 2 27 5 32 10 32 35 0 29 -25 70 -43
70 -5 0 -15 7 -24 15 -14 14 -13 18 11 38 20 18 26 32 26 65 0 31 -4 42 -15
42 -8 0 -15 7 -15 15 0 8 7 15 15 15 8 0 15 5 15 10 0 6 11 10 23 10 37 0 47
-37 47 -180 0 -117 2 -130 18 -131 65 -5 72 10 72 149 0 105 2 122 20 142 13
14 20 37 20 62 l0 38 -209 0 c-176 0 -210 -2 -215 -15 -3 -8 -15 -15 -26 -15
-11 0 -20 7 -20 15 0 10 -11 15 -35 15 l-35 0 0 -194z m62 117 c2 -26 9 -48
16 -51 6 -2 12 3 12 12 0 9 4 16 8 16 4 0 14 16 21 35 7 19 19 35 28 35 10 0
13 -5 8 -17 -54 -134 -53 -126 -11 -256 14 -45 14 -48 -1 -45 -9 2 -21 18 -26
37 -4 18 -15 40 -23 48 -8 8 -14 20 -14 26 0 7 -4 6 -10 -3 -5 -8 -10 -36 -10
-62 0 -41 -3 -48 -20 -48 -19 0 -20 7 -20 160 0 152 1 160 19 160 17 0 20 -8
23 -47z m148 -126 c0 -115 -3 -148 -12 -145 -7 3 -15 13 -17 24 -2 10 -6 21
-10 24 -4 3 -15 25 -25 49 -17 45 -15 114 5 127 5 3 9 13 9 24 0 10 7 20 15
24 8 3 15 16 15 28 0 19 2 20 10 8 5 -8 10 -82 10 -163z m130 169 c0 -22 -17
-36 -41 -36 -26 0 -29 -3 -29 -34 0 -47 9 -66 31 -66 10 0 19 -7 19 -15 0 -8
-9 -15 -19 -15 -21 0 -31 -19 -31 -60 0 -43 10 -60 35 -60 13 0 25 -7 29 -15
4 -12 -4 -15 -44 -15 l-50 0 0 160 0 160 50 0 c28 0 50 -2 50 -4z m180 -3 c0
-14 -15 -29 -32 -36 -16 -6 -18 -22 -18 -142 0 -113 -2 -135 -15 -135 -13 0
-15 22 -15 140 0 93 -4 140 -11 140 -11 0 -39 24 -39 34 0 3 29 6 65 6 36 0
65 -3 65 -7z"/>
<path d="M1750 1165 c0 -179 1 -195 18 -196 51 -4 68 12 77 74 7 45 9 47 40
47 30 0 35 4 46 37 12 37 8 180 -6 216 -6 14 -20 17 -91 17 l-84 0 0 -195z
m165 142 c3 -12 5 -56 3 -97 l-3 -75 -47 -3 -47 -3 -3 -57 c-2 -45 -7 -58 -20
-60 -17 -3 -18 10 -18 157 l0 161 65 0 c59 0 65 -2 70 -23z"/>
<path d="M1820 1225 c0 -62 1 -65 25 -65 20 0 25 6 31 34 3 19 3 48 -1 65 -5
24 -12 31 -31 31 -23 0 -24 -3 -24 -65z"/>
<path d="M1950 1165 l0 -195 23 -5 c13 -4 48 -5 77 -3 61 3 67 12 55 74 -4 24
-11 34 -24 34 -11 0 -21 7 -25 15 -6 18 2 45 15 45 5 0 9 7 9 15 0 8 5 15 10
15 6 0 10 16 10 35 0 31 -3 35 -25 35 -16 0 -25 6 -25 15 0 9 9 15 24 15 27 0
36 16 36 66 l0 34 -80 0 -80 0 0 -195z m150 155 c0 -5 -7 -10 -15 -10 -8 0
-15 -4 -15 -10 0 -5 -11 -10 -24 -10 -33 0 -39 -13 -31 -60 6 -34 11 -40 31
-40 15 0 24 -6 24 -15 0 -9 -9 -15 -24 -15 -19 0 -26 -7 -31 -30 -4 -16 -4
-43 0 -60 5 -24 12 -30 32 -30 13 0 31 -7 39 -15 14 -13 9 -15 -45 -15 l-61 0
0 160 0 160 60 0 c33 0 60 -4 60 -10z"/>
<path d="M2128 1178 c-2 -101 1 -191 5 -201 7 -14 15 -17 35 -12 25 6 33 13
47 40 3 7 7 7 10 0 15 -29 24 -36 50 -38 l28 -2 4 179 c4 217 5 216 -106 216
l-70 0 -3 -182z m148 45 c-3 -60 -6 -115 -8 -123 -1 -8 2 -32 6 -53 6 -34 5
-38 -11 -35 -12 2 -20 17 -26 47 -17 87 -47 84 -47 -5 0 -37 -3 -44 -20 -44
-19 0 -20 7 -20 160 l0 160 66 0 66 0 -6 -107z"/>
<path d="M2190 1241 c0 -62 7 -81 31 -81 22 0 32 30 27 86 -3 34 -6 39 -30 42
-27 3 -28 2 -28 -47z"/>
<path d="M2348 1341 c-15 -15 -18 -38 -17 -162 0 -199 2 -206 50 -214 54 -9
117 3 123 23 9 30 11 326 3 350 -8 20 -15 22 -75 21 -50 0 -71 -5 -84 -18z
m148 -35 c15 -61 -18 -102 -39 -47 -8 22 -18 31 -34 31 -21 0 -23 -5 -23 -49
l0 -48 41 -6 c23 -3 46 -11 51 -19 4 -7 7 -44 6 -83 l-3 -70 -65 0 -65 0 -3
35 c-1 19 2 42 8 50 9 13 11 13 20 0 5 -8 10 -25 10 -37 0 -18 6 -23 25 -23
24 0 25 3 25 60 l0 60 -31 0 c-42 0 -58 24 -59 87 0 79 3 83 71 83 54 0 59 -2
65 -24z"/>
<path d="M2547 1340 c-17 -17 -18 -34 -15 -188 1 -94 6 -173 9 -176 10 -11
106 -19 133 -12 39 10 49 60 44 222 -3 77 -8 147 -13 157 -11 25 -132 24 -158
-3z m151 -167 l-3 -158 -65 0 -65 0 -3 135 c-4 186 -6 180 73 180 l66 0 -3
-157z"/>
<path d="M2600 1179 c0 -82 4 -114 14 -125 31 -31 36 -15 36 111 l0 125 -25 0
-25 0 0 -111z"/>
<path d="M2752 1163 l3 -198 30 3 c16 2 33 9 37 15 6 9 10 9 16 1 6 -11 39
-18 70 -15 9 1 12 47 12 196 l0 195 -34 0 c-23 0 -36 -6 -41 -17 -6 -17 -7
-17 -19 0 -8 10 -26 17 -45 17 l-31 0 2 -197z m66 142 c7 -14 12 -34 12 -43 0
-9 7 -26 15 -36 14 -18 15 -14 15 42 0 55 2 62 20 62 19 0 20 -7 20 -161 0
-160 0 -160 -22 -157 -18 2 -25 15 -37 61 -8 31 -19 57 -23 57 -4 0 -8 -27 -8
-60 0 -53 -2 -60 -20 -60 -19 0 -20 7 -20 160 0 149 1 160 18 160 11 0 24 -11
30 -25z"/>
<path d="M2975 1343 c-13 -34 -34 -368 -23 -378 12 -13 56 8 67 31 11 24 31
33 31 13 0 -14 24 -37 41 -39 44 -7 49 -1 49 50 0 28 -4 50 -9 50 -4 0 -11 52
-15 115 -4 63 -12 128 -17 145 -10 28 -14 30 -64 30 -41 0 -54 -4 -60 -17z
m118 -85 c20 -239 21 -248 3 -248 -11 0 -18 12 -22 40 -5 33 -11 40 -29 40
-23 0 -35 -17 -35 -50 0 -15 -18 -30 -37 -30 -6 0 4 208 14 278 l5 42 48 0 47
0 6 -72z"/>
<path d="M3037 1283 c-4 -7 -10 -41 -14 -76 -6 -66 1 -82 31 -71 17 7 23 54 7
54 -6 0 -11 24 -13 53 -2 29 -6 47 -11 40z"/>
<path d="M3162 1163 l3 -198 49 -3 c77 -5 96 3 96 39 0 40 -16 69 -39 69 -27
0 -31 18 -31 143 -1 123 -9 147 -54 147 l-26 0 2 -197z m58 38 c0 -71 3 -136
6 -145 3 -9 16 -16 29 -16 13 0 25 -7 29 -15 4 -12 -5 -15 -49 -15 l-55 0 0
160 c0 153 1 160 20 160 19 0 20 -7 20 -129z"/>
<path d="M3426 1343 c-9 -23 13 -83 30 -83 11 0 14 -24 14 -131 0 -145 7 -169
44 -162 36 7 46 48 46 179 0 88 3 114 13 114 8 0 20 12 28 27 13 24 14 10 19
-148 l5 -174 29 2 c27 2 38 10 50 38 4 9 22 -8 29 -29 3 -9 98 -15 128 -8 9 2
22 15 28 28 14 31 37 31 45 0 4 -15 15 -25 30 -28 48 -9 49 -3 34 185 -16 199
-20 207 -91 207 -46 0 -57 -10 -57 -51 0 -10 -4 -19 -9 -19 -5 0 -12 -63 -16
-141 -5 -99 -10 -139 -18 -136 -9 3 -11 47 -8 156 4 187 2 191 -108 191 -46 0
-71 -4 -74 -12 -4 -10 -6 -10 -6 0 -1 9 -26 12 -90 12 -73 0 -90 -3 -95 -17z
m164 -23 c0 -5 -5 -10 -11 -10 -31 0 -38 -29 -41 -161 -3 -130 -4 -134 -25
-137 -23 -3 -23 -3 -23 133 0 108 -3 140 -15 151 -27 27 -16 34 50 34 37 0 65
-4 65 -10z m180 -84 c0 -59 -4 -97 -11 -102 -11 -6 -8 -53 7 -101 4 -17 2 -23
-9 -23 -9 0 -19 18 -28 48 -16 60 -36 83 -44 50 -2 -13 -6 -39 -7 -58 -2 -24
-8 -36 -20 -38 -17 -3 -18 10 -18 157 l0 161 65 0 65 0 0 -94z m184 78 c3 -9
6 -31 6 -49 0 -18 4 -35 9 -37 4 -1 11 -51 14 -110 5 -100 5 -108 -12 -108
-14 0 -20 10 -25 40 -5 34 -10 40 -31 40 -19 0 -26 -7 -31 -27 -10 -46 -13
-53 -25 -53 -11 0 -7 171 8 278 5 41 6 42 43 42 25 0 40 -5 44 -16z"/>
<path d="M3680 1241 c0 -62 7 -81 30 -81 23 0 30 19 30 81 0 48 -1 49 -30 49
-29 0 -30 -1 -30 -49z"/>
<path d="M3896 1249 c-3 -17 -6 -51 -6 -75 0 -37 3 -44 19 -44 28 0 31 10 24
84 -6 71 -26 90 -37 35z"/>
<path d="M4040 1342 c-12 -13 -16 -54 -18 -194 -3 -166 -2 -178 15 -179 74 -5
77 5 74 254 l-1 137 -27 0 c-16 -1 -35 -8 -43 -18z m48 -169 c-2 -114 -6 -157
-15 -161 -10 -3 -13 33 -13 157 0 138 2 161 15 161 13 0 15 -22 13 -157z"/>
<path d="M4142 1163 l3 -198 30 2 c16 1 31 7 33 13 4 12 39 13 44 1 3 -10 22
-14 51 -12 16 1 17 17 17 196 l0 195 -35 0 c-19 0 -35 -4 -35 -10 0 -5 -9 -10
-20 -10 -11 0 -20 5 -20 10 0 6 -16 10 -35 10 l-35 0 2 -197z m66 142 c7 -14
12 -35 12 -45 0 -11 5 -20 10 -20 6 0 10 -7 10 -15 0 -8 5 -15 10 -15 6 0 10
20 10 44 0 49 7 76 21 76 5 0 9 -72 9 -161 0 -146 -2 -160 -17 -157 -12 2 -20
18 -26 47 -8 40 -26 71 -41 71 -3 0 -6 -27 -6 -60 0 -53 -2 -60 -20 -60 -19 0
-20 7 -20 160 0 149 1 160 18 160 11 0 24 -11 30 -25z"/>
<path d="M4340 1166 c0 -220 -7 -206 92 -206 50 0 83 21 74 47 -3 8 -6 23 -6
34 0 11 -9 21 -24 25 -38 9 -45 55 -10 68 20 8 20 96 -1 96 -8 0 -15 7 -15 15
0 8 5 15 11 15 17 0 37 25 39 51 4 49 4 49 -80 49 l-80 0 0 -194z m140 158 c0
-13 -30 -34 -49 -34 -18 0 -21 -6 -21 -50 0 -47 2 -50 25 -50 16 0 25 -6 25
-15 0 -9 -9 -15 -25 -15 -24 0 -25 -3 -25 -60 0 -60 0 -60 29 -60 16 0 31 -6
35 -15 4 -12 -5 -15 -49 -15 l-55 0 0 160 0 160 55 0 c30 0 55 -3 55 -6z"/>
<path d="M4520 1166 c0 -113 4 -197 10 -201 17 -10 59 7 65 27 7 19 7 19 25
-2 10 -12 31 -22 46 -23 l29 -2 3 179 c3 217 4 216 -108 216 l-70 0 0 -194z
m150 68 c0 -52 -4 -103 -9 -113 -6 -11 -6 -34 0 -60 5 -24 7 -46 4 -50 -10
-10 -35 30 -35 56 0 13 -4 23 -10 23 -5 0 -10 9 -10 20 0 11 -4 20 -9 20 -14
0 -21 -27 -21 -76 0 -37 -3 -44 -20 -44 -19 0 -20 7 -20 160 l0 160 65 0 65 0
0 -96z"/>
<path d="M4587 1283 c-9 -8 -9 -86 -1 -107 8 -21 40 -21 48 0 3 9 6 38 6 65 0
45 -2 49 -23 49 -13 0 -27 -3 -30 -7z"/>
<path d="M1518 593 c-101 -2 -168 -7 -168 -13 0 -6 -25 -10 -55 -10 -30 0 -55
-4 -55 -9 0 -10 49 -21 96 -21 19 0 34 -4 34 -10 0 -5 13 -10 29 -10 16 0 31
-5 33 -11 2 -5 39 -13 82 -16 l78 -6 -6 -29 c-5 -27 -4 -28 37 -28 101 -1 222
-12 225 -21 2 -5 12 -9 23 -9 10 0 19 -4 19 -10 0 -5 9 -10 20 -10 28 0 25 16
-9 49 -16 15 -34 38 -40 50 -7 11 -17 21 -24 21 -7 0 -21 16 -31 35 -11 19
-23 35 -28 35 -5 0 -16 7 -24 15 -9 8 -27 14 -42 13 -15 -1 -102 -4 -194 -5z"/>
<path d="M3328 591 c-21 -7 -118 -99 -118 -112 0 -5 -6 -9 -12 -9 -11 0 -58
-69 -58 -84 0 -4 7 -6 15 -6 8 0 15 5 15 10 0 6 11 10 24 10 13 0 26 5 28 10
3 9 74 15 225 19 41 1 42 2 37 30 l-6 28 81 7 c45 4 81 12 81 17 0 5 11 9 25
9 14 0 25 5 25 10 0 6 20 10 44 10 49 0 76 7 76 21 0 5 -11 9 -24 9 -13 0 -26
4 -28 9 -3 9 -406 20 -430 12z"/>
</g>
</svg>
